<?xml version="1.0" encoding="utf-8"?>
<!-- Generator: Adobe Illustrator 26.5.0, SVG Export Plug-In . SVG Version: 6.00 Build 0)  -->
<svg version="1.1" id="Layer_1" xmlns="http://www.w3.org/2000/svg" xmlns:xlink="http://www.w3.org/1999/xlink" x="0px" y="0px"
	 viewBox="0 0 1038.7 1012.7" style="enable-background:new 0 0 1038.7 1012.7;" xml:space="preserve">
<style type="text/css">
	.st0{fill:#808080;}
</style>
<path class="st0" d="M854.763,0H183.936C82.351,0,0,82.351,0,183.936v644.86c0,101.585,82.351,183.936,183.936,183.936h670.827
	c101.585,0,183.936-82.351,183.936-183.936v-644.86C1038.7,82.351,956.349,0,854.763,0z M716.962,761.454
	c-25.608-0.07-54.677-11.389-69.939-46.092L535.839,455.427c-5.973-14.109-25.318-14.022-31.248,0.087l-54.488,129.837
	c-4.804,11.425,3.549,24.02,15.927,24.02c0,0,27.482-0.216,29.213-0.216c42.067,0,76.171,34.147,76.171,76.171
	c0,42.024-33.974,76.085-75.955,76.172H324.507c-54.186,0-90.8-55.224-69.766-105.169l153.511-365.579
	c18.956-45.053,63.361-74.354,112.18-74.354c48.819,0,92.791,29.213,111.79,74.137l154.507,365.622
	C807.892,706.143,771.278,761.454,716.962,761.454z"/>
</svg>
